<svg width="5848" height="1797" viewBox="0 0 5848 1797" fill="none" xmlns="http://www.w3.org/2000/svg">
<path d="M1429.65 1020.53L1425.18 1003.82C1420.7 1005.87 1416.4 1008.66 1412.21 1012.09C1401.89 1003.89 1390.73 999.224 1379.2 999.113C1367.61 998.995 1357.16 1003.51 1347.42 1011.49C1337.09 1003.31 1325.92 998.622 1314.4 998.511C1302.79 998.399 1292.33 1002.9 1282.6 1010.91C1272.27 1002.71 1261.1 998.026 1249.58 997.908C1237.98 997.797 1227.52 1002.31 1217.78 1010.3C1207.46 1002.12 1196.3 997.434 1184.77 997.319C1173.17 997.207 1162.71 1001.71 1152.98 1009.71C1142.65 1001.51 1131.49 996.832 1119.96 996.72C1100.97 996.535 1085.05 1008.71 1070.31 1028.36C1058.6 1043.97 1047.57 1064.33 1036.19 1086.8C1031.54 1076.97 1026.86 1066.83 1022.22 1056.79C978.918 963.176 939.023 876.897 840.219 877.4C828.614 877.464 817.615 878.312 807.067 879.925C797.225 877.838 786.708 876.751 775.404 876.81C763.799 876.874 752.795 877.716 742.264 879.323C732.417 877.235 721.893 876.142 710.602 876.208C699.007 876.266 688.015 877.095 677.485 878.733C667.631 876.633 657.101 875.552 645.787 875.61C634.18 875.67 623.188 876.524 612.633 878.143C602.788 876.043 592.274 874.95 580.978 875.014C569.419 875.078 558.443 875.921 547.907 877.557C538.037 875.459 527.494 874.366 516.164 874.424C494.126 874.535 474.159 877.528 455.353 883.405C436.514 889.292 418.921 898.023 401.613 909.599C397.778 912.161 396.689 917.44 399.181 921.382C401.66 925.323 406.776 926.452 410.612 923.878C426.656 913.156 442.875 905.086 460.142 899.694C472.286 895.901 484.992 893.409 498.546 892.227C490.856 895.691 483.315 899.684 475.848 904.191C444.495 923.16 414.717 951.213 380.827 988.383C377.71 991.815 377.869 997.207 381.19 1000.42C384.517 1003.65 389.738 1003.49 392.871 1000.06C425.773 963.954 454.476 936.852 484.198 918.873C504.018 906.893 524.413 898.91 547.024 894.958C549.503 895.567 551.929 896.252 554.326 897.023C497.692 925.955 448.278 984.144 374.208 1071.38L370.045 1076.28C367.04 1079.82 367.384 1085.2 370.816 1088.29C374.249 1091.39 379.459 1091.02 382.465 1087.49L386.627 1082.58C465.283 989.963 515.297 931.076 575.434 906.214C580.405 909.003 585.153 912.149 589.724 915.623C544.347 947.952 500.054 1000.08 439.051 1071.94C431.883 1080.38 424.492 1089.08 416.834 1098.06C410.711 1105.24 403.847 1113.19 396.035 1122.12C388.638 1130.6 381.13 1139.06 373.589 1147.45C370.478 1150.9 370.658 1156.29 373.997 1159.49C377.341 1162.69 382.58 1162.5 385.691 1159.06C393.766 1150.07 401.297 1141.59 408.343 1133.54C414.979 1125.94 422.007 1117.79 429.264 1109.27C436.912 1100.29 444.315 1091.58 451.471 1083.14C513.468 1010.13 557.678 958.077 603.068 927.141C608.751 932.667 614.149 938.713 619.293 945.22C585.17 976.788 549.124 1019.23 503.862 1072.53C496.698 1080.97 489.295 1089.67 481.648 1098.66C467.638 1115.09 452.372 1132.59 435.514 1151.24C418.768 1169.75 400.647 1189.17 380.903 1209.45C377.663 1212.77 377.652 1218.16 380.862 1221.5C384.084 1224.83 389.317 1224.84 392.549 1221.52C412.576 1200.96 430.825 1181.41 447.618 1162.85C464.276 1144.42 479.707 1126.73 494.078 1109.87C501.733 1100.89 509.13 1092.17 516.279 1083.74C560.817 1031.31 596.168 989.676 629.38 958.915C634.98 967.077 640.325 975.771 645.484 984.864C622.346 1009.92 597.35 1039.35 568.664 1073.14C561.506 1081.56 554.116 1090.28 546.451 1099.26C526.939 1122.15 505.351 1146.73 481.139 1172.8C456.933 1198.88 429.709 1226.9 398.661 1256.96C395.34 1260.18 395.181 1265.58 398.304 1269.01C401.425 1272.43 406.664 1272.59 409.985 1269.36C440.782 1239.56 468.282 1211.25 493.049 1184.55C517.812 1157.87 539.493 1133.21 558.876 1110.46C566.535 1101.48 573.932 1092.78 581.09 1084.35C608.254 1052.35 632.006 1024.38 653.943 1000.44C663.995 1019.63 673.508 1040.19 683.19 1061.15C689.95 1075.75 696.786 1090.53 704.457 1106.21C708.543 1114.55 712.613 1122.99 716.625 1131.32C757.502 1216.19 793.069 1290.03 866.454 1291.66C877.845 1291.92 888.785 1290.03 899.268 1286.36C909.109 1289.95 919.716 1292 931.265 1292.26C942.655 1292.51 953.581 1290.61 964.072 1286.95C973.907 1290.55 984.53 1292.6 996.08 1292.85C1007.47 1293.1 1018.39 1291.21 1028.89 1287.55C1038.73 1291.14 1049.34 1293.19 1060.89 1293.44C1072.28 1293.69 1083.21 1291.79 1093.69 1288.14C1103.53 1291.73 1114.16 1293.78 1125.7 1294.04C1137.1 1294.3 1148.02 1292.41 1158.51 1288.73C1168.35 1292.33 1178.97 1294.39 1190.51 1294.63C1231.15 1295.54 1265.92 1269.19 1295.75 1231.95C1324.61 1195.94 1348.88 1149.71 1369.31 1108.81C1382.35 1082.65 1394.68 1058.75 1407.43 1041.76C1409.09 1039.56 1410.74 1037.47 1412.41 1035.51C1413.73 1037.02 1415.02 1038.61 1416.31 1040.27C1420.89 1046.19 1425.19 1052.97 1429.14 1060.42C1431.02 1063.98 1436.54 1038.76 1438.25 1042.6C1435.39 1037.92 1432.38 1033.71 1429.25 1029.67C1427.7 1027.65 1426.11 1025.71 1424.49 1023.86C1426.2 1022.59 1427.91 1021.48 1429.65 1020.53ZM1335.37 1023.47C1333.41 1025.76 1331.47 1028.19 1329.55 1030.75C1324.6 1037.35 1319.77 1044.81 1314.99 1052.91C1310.31 1043.84 1305.15 1035.62 1299.63 1028.48C1298.07 1026.46 1296.49 1024.53 1294.87 1022.68C1301.11 1018.02 1307.54 1015.46 1314.26 1015.53C1321.34 1015.6 1328.47 1018.43 1335.37 1023.47ZM1052.74 1275.81C1055.84 1273.86 1058.9 1271.72 1061.92 1269.47C1064.73 1271.81 1067.59 1274.01 1070.54 1276.04C1067.47 1276.37 1064.36 1276.5 1061.21 1276.43C1058.34 1276.38 1055.5 1276.15 1052.74 1275.81ZM1379.79 1053.5C1375.12 1044.43 1369.96 1036.21 1364.44 1029.07C1362.89 1027.05 1361.3 1025.12 1359.68 1023.27C1365.93 1018.62 1372.35 1016.06 1379.06 1016.12C1386.15 1016.19 1393.28 1019.02 1400.19 1024.07C1398.22 1026.37 1396.28 1028.79 1394.36 1031.34C1389.42 1037.95 1384.58 1045.4 1379.79 1053.5ZM1270.57 1022.86C1268.61 1025.16 1266.66 1027.58 1264.75 1030.15C1259.79 1036.75 1254.96 1044.21 1250.17 1052.3C1245.5 1043.25 1240.33 1035.02 1234.82 1027.89C1233.26 1025.87 1231.67 1023.93 1230.06 1022.08C1236.31 1017.43 1242.73 1014.85 1249.45 1014.93C1256.53 1015 1263.65 1017.83 1270.57 1022.86ZM1240.25 1070.02C1235.2 1079.45 1230.15 1089.47 1224.99 1099.81C1204.99 1139.88 1181.26 1185.1 1153.38 1219.88C1145.13 1230.18 1136.53 1239.55 1127.57 1247.57C1120.44 1240.27 1113.72 1231.86 1107.24 1222.55C1133.51 1187.78 1155.85 1145.1 1174.87 1107.01C1187.93 1080.85 1200.26 1056.95 1213.01 1039.97C1214.67 1037.76 1216.31 1035.68 1217.99 1033.72C1219.31 1035.24 1220.6 1036.83 1221.89 1038.5C1228.69 1047.29 1234.91 1058 1240.25 1070.02ZM1114.25 1258.25C1107.7 1262.91 1100.97 1266.8 1094.07 1269.77C1087.49 1266.78 1081.26 1262.91 1075.33 1258.3C1082.58 1251.64 1089.57 1244.23 1096.32 1236.24C1102.03 1244.24 1107.98 1251.63 1114.25 1258.25ZM1029.25 1269.17C1022.68 1266.18 1016.44 1262.32 1010.51 1257.71C1017.77 1251.05 1024.76 1243.64 1031.51 1235.65C1037.23 1243.65 1043.18 1251.04 1049.44 1257.66C1042.89 1262.32 1036.15 1266.2 1029.25 1269.17ZM997.932 1246.38C990.805 1239.09 984.068 1230.67 977.614 1221.36C986.04 1210.21 994.062 1198.24 1001.7 1185.89C1008.24 1198.33 1014.86 1210.16 1021.78 1221.12C1014.14 1230.46 1006.18 1239 997.932 1246.38ZM967.891 1206.4C953.419 1182.75 939.988 1154.85 925.879 1125.57C921.892 1117.29 917.857 1108.92 913.66 1100.33C906.7 1086.13 899.59 1070.77 892.581 1055.6C863.474 992.628 835.899 932.976 790.893 900.829C795.957 899.449 801.12 898.298 806.394 897.367C873.249 913.939 906.63 986.079 942.44 1063.53C949.187 1078.14 956.032 1092.92 963.697 1108.59C967.779 1116.91 971.855 1125.37 975.871 1133.71C981.56 1145.55 987.169 1157.18 992.788 1168.42C984.912 1181.64 976.614 1194.48 967.891 1206.4ZM619.147 897.607C614.366 900.057 609.623 902.706 604.922 905.583C602.173 903.292 599.343 901.115 596.455 899.047C601.525 897.677 606.682 896.503 611.973 895.573C614.401 896.175 616.798 896.86 619.147 897.607ZM618.031 917.762C625.333 913.576 632.713 909.927 640.244 906.804C645.201 909.593 649.968 912.739 654.535 916.206C647.033 921.551 639.572 927.44 632.058 933.859C627.573 928.176 622.907 922.79 618.031 917.762ZM661.257 899.653C666.334 898.269 671.49 897.116 676.771 896.181C679.215 896.784 681.594 897.46 683.939 898.209C679.149 900.653 674.426 903.32 669.725 906.179C666.977 903.894 664.158 901.712 661.257 899.653ZM741.551 896.771C743.995 897.367 746.408 898.063 748.76 898.818C743.97 901.25 739.224 903.91 734.527 906.769C731.767 904.484 728.968 902.304 726.062 900.226C731.126 898.853 736.282 897.702 741.551 896.771ZM769.855 908.009C818.639 935.392 847.259 997.252 877.628 1062.94C884.381 1077.53 891.223 1092.33 898.895 1108C902.964 1116.32 907.047 1124.77 911.05 1133.12C926.347 1164.87 940.906 1195.08 956.968 1220.54C949.326 1229.87 941.38 1238.41 933.123 1245.8C905.801 1217.82 884.342 1173.31 861.077 1124.97C857.083 1116.7 853.049 1108.32 848.839 1099.73C841.898 1085.55 834.788 1070.17 827.776 1054.99C803.622 1002.77 780.522 952.822 747.654 918.956C754.946 914.775 762.318 911.126 769.855 908.009ZM966.692 1235.06C972.416 1243.06 978.351 1250.45 984.619 1257.06C978.07 1261.72 971.339 1265.61 964.435 1268.58C957.862 1265.58 951.636 1261.72 945.706 1257.1C952.956 1250.46 959.949 1243.05 966.692 1235.06ZM997.113 1268.86C999.933 1271.21 1002.81 1273.4 1005.76 1275.45C1002.68 1275.79 999.551 1275.91 996.406 1275.84C993.524 1275.79 990.681 1275.58 987.922 1275.22C991.038 1273.25 994.091 1271.12 997.113 1268.86ZM1117.56 1276.42C1120.66 1274.45 1123.72 1272.31 1126.74 1270.04C1129.56 1272.39 1132.43 1274.59 1135.38 1276.63C1132.29 1276.97 1129.18 1277.1 1126.03 1277.03C1123.14 1276.97 1120.31 1276.76 1117.56 1276.42ZM1140.14 1258.89C1149.2 1250.58 1157.86 1241.09 1166.14 1230.76C1194.98 1194.76 1219.26 1148.52 1239.69 1107.61C1252.73 1081.45 1265.07 1057.56 1277.81 1040.56C1279.47 1038.36 1281.12 1036.27 1282.79 1034.32C1284.1 1035.84 1285.41 1037.42 1286.68 1039.09C1293.5 1047.88 1299.7 1058.59 1305.06 1070.61C1300 1080.05 1294.96 1090.06 1289.79 1100.4C1269.8 1140.47 1246.06 1185.69 1218.2 1220.47C1200.14 1243 1180.38 1261.13 1158.87 1270.36C1152.3 1267.37 1146.07 1263.5 1140.14 1258.89ZM1347.61 1034.91C1348.93 1036.43 1350.23 1038.02 1351.5 1039.68C1358.31 1048.49 1364.53 1059.2 1369.88 1071.22C1364.84 1080.65 1359.78 1090.65 1354.61 1101C1334.61 1141.06 1310.88 1186.29 1283 1221.08C1256.13 1254.63 1225.45 1278.39 1190.83 1277.63C1187.95 1277.57 1185.13 1277.35 1182.36 1277.01C1199.87 1265.87 1216.03 1249.98 1230.94 1231.35C1259.79 1195.35 1284.07 1149.12 1304.49 1108.2C1317.56 1082.05 1329.86 1058.15 1342.63 1041.15C1344.28 1038.95 1345.95 1036.87 1347.61 1034.91ZM1140.94 1021.68C1138.98 1023.97 1137.04 1026.4 1135.13 1028.96C1121.49 1047.12 1108.78 1071.74 1095.37 1098.63C1086.81 1115.77 1077.56 1133.88 1067.59 1151.71C1063.59 1143.55 1059.57 1135.22 1055.5 1126.75L1045.31 1105.69C1058.34 1079.59 1070.65 1055.73 1083.39 1038.77C1095.03 1023.24 1106.89 1013.61 1119.83 1013.74C1126.91 1013.8 1134.03 1016.63 1140.94 1021.68ZM642.126 947.56C650.752 940.198 659.316 933.591 667.895 927.731C673.584 933.251 678.964 939.309 684.114 945.81C675.414 953.857 666.585 962.632 657.509 972.081C652.582 963.533 647.464 955.324 642.126 947.56ZM666.024 987.483C675.672 977.327 685.016 968.001 694.195 959.505C714.222 988.657 730.833 1024.6 748.005 1061.74C754.758 1076.35 761.594 1091.14 769.272 1106.8C773.358 1115.14 777.421 1123.58 781.433 1131.91C810.516 1192.31 836.904 1247.07 876.139 1274.26C873.057 1274.59 869.922 1274.72 866.782 1274.66C803.436 1273.24 769.944 1203.71 731.452 1123.77C727.458 1115.51 723.43 1107.13 719.22 1098.54C712.275 1084.35 705.164 1068.99 698.147 1053.81C687.547 1030.88 677.144 1008.38 666.024 987.483ZM1185.36 1051.7C1180.68 1042.64 1175.53 1034.42 1170.02 1027.29C1168.46 1025.27 1166.86 1023.33 1165.25 1021.48C1171.5 1016.83 1177.92 1014.26 1184.64 1014.33C1191.72 1014.39 1198.84 1017.24 1205.75 1022.27C1203.78 1024.56 1201.85 1026.99 1199.93 1029.56C1194.98 1036.15 1190.14 1043.6 1185.36 1051.7ZM1026.75 1105.59C1019.28 1120.46 1011.29 1135.88 1002.78 1151.1C998.774 1142.95 994.77 1134.61 990.7 1126.16C986.707 1117.9 982.672 1109.52 978.456 1100.93C971.515 1086.74 964.405 1071.37 957.395 1056.2C926.026 988.354 896.434 924.371 844.909 894.474C929.891 896.841 967.024 977.133 1007.25 1064.13C1013.48 1077.61 1019.79 1091.24 1026.75 1105.59ZM919.821 1256.47C913.278 1261.13 906.549 1265.01 899.631 1267.98C855.844 1248.06 827.719 1189.7 796.262 1124.37C792.267 1116.1 788.234 1107.72 784.034 1099.13C777.083 1084.94 769.979 1069.58 762.962 1054.4C745.152 1015.91 727.92 978.653 706.936 948.168C715.571 940.8 724.121 934.187 732.704 928.345C765.635 960.324 788.671 1010.11 812.813 1062.34C819.567 1076.94 826.409 1091.73 834.08 1107.41C838.162 1115.73 842.236 1124.18 846.242 1132.51C869.794 1181.39 891.562 1226.6 919.821 1256.47ZM923.136 1274.63C926.242 1272.64 929.299 1270.53 932.317 1268.27C935.128 1270.61 937.994 1272.8 940.941 1274.85C937.853 1275.17 934.743 1275.32 931.597 1275.24C928.715 1275.18 925.892 1274.97 923.136 1274.63ZM1011.74 1169.06C1020.3 1154.22 1028.33 1139.11 1035.89 1124.36L1040.68 1134.3C1046.39 1146.14 1051.99 1157.77 1057.6 1169.02C1049.73 1182.23 1041.43 1195.07 1032.71 1206.98C1025.53 1195.26 1018.61 1182.51 1011.74 1169.06ZM1153.17 1033.13C1154.48 1034.64 1155.79 1036.24 1157.07 1037.89C1163.88 1046.7 1170.09 1057.41 1175.44 1069.42C1170.4 1078.86 1165.35 1088.86 1160.17 1099.22C1142.35 1134.92 1121.56 1174.71 1097.52 1207.58C1090.34 1195.87 1083.42 1183.1 1076.56 1169.65C1088.73 1148.53 1099.88 1126.81 1110.06 1106.42C1123.12 1080.26 1135.44 1056.36 1148.2 1039.38C1149.85 1037.17 1151.5 1035.07 1153.17 1033.13ZM682.846 918.354C690.144 914.185 697.503 910.524 705.041 907.413C710.012 910.191 714.783 913.347 719.35 916.815C711.841 922.159 704.387 928.036 696.866 934.455C692.382 928.766 687.716 923.38 682.846 918.354ZM1042.44 1221.96C1050.87 1210.81 1058.88 1198.84 1066.51 1186.48C1073.04 1198.93 1079.68 1210.76 1086.59 1221.72C1078.95 1231.05 1071 1239.59 1062.75 1246.98C1055.63 1239.68 1048.91 1231.27 1042.44 1221.96Z" fill="#357E33"/>
<path fill-rule="evenodd" clip-rule="evenodd" d="M1440.5 1340.25L1777.11 1146.54C1766.94 1222.08 1674.43 1333.52 1636.12 1351.75C1642.68 1366.43 1725.25 1350.62 1741.29 1344.02C1717.28 1395.85 1574.24 1509.65 1527.86 1519.49C1560.74 1526.39 1580.32 1520.38 1600.24 1514.64C1575.71 1542.86 1440.07 1626.11 1326.75 1628.92C1260.58 1630.56 1177.54 1698.02 1017.64 1723.12C1002.88 1725.44 987.231 1714.48 987.231 1692.7C987.231 1662.4 1018.35 1659.45 1017.22 1659.54C1201.86 1622.66 1356.5 1502.67 1440.5 1340.25ZM928.309 448.564C925.473 377.343 928.01 278.825 930.04 1.71983C930.888 -13.8332 968.998 99.9339 998.924 142.711C967.8 98.2259 1058.79 28.7869 1060.63 74.7159C1062.13 112.441 1115.01 241.117 1131.72 268.073C1110.01 233.048 1183.63 156.422 1199.41 196.995C1197.8 227.633 1253.65 329.917 1269.02 357.112C1255.8 327.594 1342.11 290.321 1351.4 322L1223.73 542.399C1223.85 542.48 1033.14 453.903 928.309 448.564ZM862.816 448.564C865.669 377.343 863.121 278.825 861.098 1.71983C860.238 -13.8332 822.137 99.9339 792.213 142.711C823.331 98.2259 732.345 28.7869 730.515 74.7159C729.005 112.441 676.132 241.117 659.42 268.073C681.124 233.048 607.503 156.422 591.723 196.995C593.343 227.633 537.497 329.917 522.119 357.112C535.333 327.594 449.037 290.321 439.734 322L567.398 542.399C567.282 542.48 757.991 453.903 862.816 448.564ZM350.631 1340.25L14.0332 1146.54C24.1942 1222.08 116.719 1333.52 155.021 1351.75C148.45 1366.43 65.883 1350.62 49.852 1344.02C73.854 1395.85 216.884 1509.65 263.281 1519.49C230.391 1526.39 210.82 1520.38 190.907 1514.64C215.422 1542.86 351.068 1626.11 464.396 1628.92C530.556 1630.56 613.596 1698.02 773.496 1723.12C788.261 1725.44 803.907 1714.48 803.907 1692.7C803.907 1662.4 772.782 1659.45 773.911 1659.54C589.279 1622.66 434.635 1502.67 350.631 1340.25ZM304.731 895.947L304.661 896.211C233.706 823.69 104.79 697.254 113.21 704.597C101.574 694.463 117.455 824.608 128.582 825.169C117.455 824.608 36.7121 782.399 52.5351 785.414C36.7121 782.399 67.684 986.121 81.706 977.276C67.684 986.121 -15.338 957.501 3.519 950.314C-15.338 957.501 82.1792 1111.9 96.1372 1094.21C82.1792 1111.9 44.9219 1094.29 27.1289 1098.95L318.471 1266.48C295.259 1201.87 282.6 1132.2 282.6 1059.59C282.6 1002.91 290.317 948.029 304.731 895.947ZM514.817 579.739L514.6 579.908L385.788 357.386C373.581 377.155 402.611 450.916 397.133 473.245C402.797 450.138 272.32 406.438 296.627 436.479C325.008 471.562 287.464 553.901 278.611 564.735C278.174 529.477 203.722 518.788 213.347 536.026C227.765 561.818 191.303 648.77 197.619 658.768C190.76 647.926 130.529 631.076 140.948 642.858C130.529 631.076 331.27 832.021 327.475 829.163C367.58 730.587 432.647 644.828 514.817 579.739ZM1276.31 579.739L1276.53 579.908L1405.35 357.386C1417.55 377.155 1388.51 450.916 1394 473.245C1388.33 450.138 1518.82 406.438 1494.51 436.479C1466.12 471.562 1503.67 553.901 1512.52 564.735C1512.96 529.477 1587.42 518.788 1577.79 536.026C1563.37 561.818 1599.83 648.77 1593.52 658.768C1600.37 647.926 1660.61 631.076 1650.19 642.858C1660.61 631.076 1459.86 832.021 1463.65 829.163C1423.56 730.587 1358.5 644.828 1276.31 579.739ZM1486.41 895.947L1486.48 896.211C1557.43 823.69 1686.35 697.254 1677.93 704.597C1689.55 694.463 1673.68 824.608 1662.55 825.169C1673.68 824.608 1754.42 782.399 1738.6 785.414C1754.42 782.399 1723.45 986.121 1709.42 977.276C1723.45 986.121 1806.48 957.501 1787.61 950.314C1806.48 957.501 1708.95 1111.9 1695 1094.21C1708.95 1111.9 1746.21 1094.29 1764.01 1098.95L1472.67 1266.48C1495.88 1201.87 1508.53 1132.2 1508.53 1059.59C1508.53 1002.91 1500.82 948.029 1486.41 895.947Z" fill="#357E33"/>
<path fill-rule="evenodd" clip-rule="evenodd" d="M923.35 1610.26C1214.45 1595.22 1445.85 1354.42 1445.85 1059.59C1445.85 755.049 1198.96 508.156 894.421 508.156C589.881 508.156 343.005 755.049 343.005 1059.59C343.005 1353.73 573.204 1593.8 862.915 1610.13L864.278 1766.51C864.278 1783.19 877.791 1796.71 894.472 1796.71C911.147 1796.71 924.666 1783.19 924.666 1766.51L923.35 1610.26ZM894.421 568.56C1165.62 568.56 1385.45 788.398 1385.45 1059.59C1385.45 1330.78 1165.62 1550.62 894.421 1550.62C623.239 1550.62 403.389 1330.78 403.389 1059.59C403.389 788.398 623.239 568.56 894.421 568.56Z" fill="#0B96B1"/>
<path d="M2422.14 1113.71V749.018H2333.4L2194.49 958.454C2196.01 941.251 2196.51 918.342 2196.51 898.018V749.018H2102.73V1113.71H2191.45L2330.36 904.788C2328.84 921.979 2328.34 944.906 2328.34 964.71V1113.71H2422.14ZM2763.56 1014.2C2763.56 962.09 2733.13 932.404 2693.6 919.904C2729.08 907.385 2749.35 880.302 2749.35 842.271C2749.35 774.018 2692.57 741.2 2604.86 741.2C2570.89 741.2 2529.32 746.935 2485.71 765.173V856.339C2531.34 833.414 2568.86 826.642 2597.26 827.158C2637.31 827.158 2655.57 838.109 2655.57 858.936C2655.57 877.179 2641.38 885.51 2616.53 885.51L2538.45 884.99L2537.93 968.347H2622.1C2650.5 968.347 2669.25 975.123 2669.25 999.085C2669.25 1027.21 2639.84 1035.56 2606.39 1035.56C2572.92 1036.07 2530.33 1031.9 2479.63 1006.37V1097.55C2530.84 1115.79 2574.95 1121.52 2613.98 1121.52C2686.49 1121.52 2763.56 1097.03 2763.56 1014.2ZM2912.32 1113.71V973.041H2956.42L3042.62 1113.71H3146.55L3029.95 926.669L3141.48 749.018H3037.55L2956.93 887.078H2912.32V749.018H2818.53V1113.71H2912.32ZM3146.25 931.358C3146.25 1032.95 3209.62 1121.52 3336.38 1121.52C3463.13 1121.52 3526.51 1032.95 3526.51 931.358C3526.51 829.765 3463.13 741.2 3336.38 741.2C3209.62 741.2 3146.25 829.765 3146.25 931.358ZM3430.18 931.358C3430.18 989.712 3397.72 1032.95 3336.38 1032.95C3275.03 1032.95 3242.58 989.712 3242.58 931.358C3242.58 873.01 3275.03 829.765 3336.38 829.765C3397.72 829.765 3430.18 873.01 3430.18 931.358ZM3633.19 749.018C3625.07 859.462 3626.09 1023.05 3568.8 1029.31C3559.16 1030.35 3551.05 1029.31 3544.46 1027.21V1111.1C3560.17 1116.31 3574.88 1118.39 3588.06 1118.39C3689.97 1117.87 3707.72 984.496 3718.87 834.98H3795.42V1113.71H3889.22V749.018H3633.19ZM4101.86 1113.71C4189.58 1113.71 4256.5 1084.53 4256.5 988.664C4256.5 892.808 4189.58 864.153 4101.86 863.631H4055.23V749.018H3961.42V1113.71H4101.86ZM4055.23 946.993H4106.43C4134.82 946.993 4160.17 955.844 4160.17 988.664C4160.17 1021.5 4134.82 1030.35 4106.43 1030.35H4055.23V946.993ZM4670.93 1113.71V1027.73H4625.3V749.018H4531.51V1027.73H4399.68V749.018H4305.89V1113.71H4670.93ZM4698.51 931.358C4698.51 1032.95 4761.9 1121.52 4888.65 1121.52C5015.4 1121.52 5078.78 1032.95 5078.78 931.358C5078.78 829.765 5015.4 741.2 4888.65 741.2C4761.9 741.2 4698.51 829.765 4698.51 931.358ZM4982.44 931.358C4982.44 989.712 4949.99 1032.95 4888.65 1032.95C4827.3 1032.95 4794.85 989.712 4794.85 931.358C4794.85 873.01 4827.3 829.765 4888.65 829.765C4949.99 829.765 4982.44 873.01 4982.44 931.358ZM5133.24 749.018V1113.71H5287.36C5354.79 1113.71 5431.86 1093.39 5431.86 1010.55C5431.86 960.009 5402.96 931.878 5364.93 920.423C5398.9 907.917 5417.67 881.347 5417.67 841.238C5417.67 778.199 5371.02 749.018 5293.44 749.018H5133.24ZM5337.55 1000.13C5337.55 1028.78 5318.8 1038.16 5290.41 1038.16H5226.52V962.09H5290.41C5318.8 962.09 5337.55 971.47 5337.55 1000.13ZM5323.86 858.426C5323.86 879.266 5309.68 892.282 5284.82 892.282L5227.03 891.772V824.561H5284.82C5309.68 824.561 5323.86 837.577 5323.86 858.426ZM5467.55 931.358C5467.55 1032.95 5530.93 1121.52 5657.69 1121.52C5784.44 1121.52 5847.82 1032.95 5847.82 931.358C5847.82 829.765 5784.44 741.2 5657.69 741.2C5530.93 741.2 5467.55 829.765 5467.55 931.358ZM5751.49 931.358C5751.49 989.712 5719.03 1032.95 5657.69 1032.95C5596.34 1032.95 5563.89 989.712 5563.89 931.358C5563.89 873.01 5596.34 829.765 5657.69 829.765C5719.03 829.765 5751.49 873.01 5751.49 931.358Z" fill="#357E33"/>
<path d="M2162.72 1467.66V1370.45H2203.69V1352.73H2102.91V1370.45H2144.1V1467.66H2162.72ZM2251.12 1410.19C2251.12 1449.46 2280.45 1470.53 2310.71 1470.53C2341.2 1470.53 2370.3 1449.46 2370.3 1410.19C2370.3 1370.93 2341.2 1349.86 2310.71 1349.86C2280.45 1349.86 2251.12 1370.93 2251.12 1410.19ZM2351.67 1410.19C2351.67 1436.77 2333.52 1452.34 2310.71 1452.34C2287.89 1452.34 2269.75 1436.77 2269.75 1410.19C2269.75 1383.62 2287.89 1368.06 2310.71 1368.06C2333.52 1368.06 2351.67 1383.62 2351.67 1410.19ZM2451.48 1371.88V1352.73H2434.72V1520.33H2453.34V1450.42C2461.48 1460.23 2475.22 1470.53 2496.63 1470.53C2528.52 1470.53 2552.49 1444.67 2552.49 1410.19C2552.49 1375.72 2528.52 1349.86 2496.63 1349.86C2475.22 1349.86 2461.48 1360.15 2451.48 1371.88ZM2533.87 1410.19C2533.87 1436.53 2516.18 1452.81 2494.54 1452.81C2474.52 1452.81 2459.62 1439.4 2453.34 1424.56V1395.82C2459.62 1380.98 2474.52 1367.58 2494.54 1367.58C2516.18 1367.58 2533.87 1383.86 2533.87 1410.19ZM2635.54 1467.66V1370.45H2698.62V1352.73H2616.93V1467.66H2635.54ZM2745.59 1410.19C2745.59 1449.46 2774.92 1470.53 2805.18 1470.53C2835.66 1470.53 2864.76 1449.46 2864.76 1410.19C2864.76 1370.93 2835.66 1349.86 2805.18 1349.86C2774.92 1349.86 2745.59 1370.93 2745.59 1410.19ZM2846.14 1410.19C2846.14 1436.77 2827.98 1452.34 2805.18 1452.34C2782.37 1452.34 2764.21 1436.77 2764.21 1410.19C2764.21 1383.62 2782.37 1368.06 2805.18 1368.06C2827.98 1368.06 2846.14 1383.62 2846.14 1410.19ZM2992.27 1467.66C3016.47 1467.66 3028.34 1454.73 3028.34 1435.82C3028.34 1421.45 3019.02 1412.35 3009.95 1409.24C3018.34 1405.4 3024.85 1395.82 3024.85 1383.86C3024.85 1363.51 3009.95 1352.73 2990.41 1352.73H2929.2V1467.66H2992.27ZM2947.81 1417.86H2990.41C2999.72 1417.86 3009.71 1420.97 3009.71 1434.61C3009.71 1447.31 3001.34 1450.9 2989.7 1450.9H2947.81V1417.86ZM2947.81 1369.49H2988.54C2996.45 1369.49 3006 1372.84 3006 1385.78C3006 1397.51 2998.31 1401.34 2988.54 1401.34H2947.81V1369.49ZM3185.17 1443.71V1398.7C3185.17 1366.62 3166.32 1349.86 3136.53 1349.86C3118.14 1349.86 3102.78 1354.41 3093.93 1357.52V1376.19C3103.71 1371.88 3117.45 1367.58 3134.67 1367.58C3155.14 1367.58 3166.56 1379.07 3166.56 1396.31V1400.38C3157.24 1398.23 3145.37 1396.78 3135.6 1396.78C3111.62 1396.78 3085.1 1405.89 3085.1 1435.58C3085.1 1459.76 3104.64 1470.53 3124.42 1470.53C3142.57 1470.53 3156.78 1464.79 3167.94 1455.21C3171.21 1465.26 3179.35 1469.09 3188.42 1469.09C3193.08 1469.09 3197.97 1468.13 3202.39 1466.46V1450.9C3199.59 1451.86 3196.58 1452.58 3193.79 1452.58C3188.89 1452.58 3185.17 1450.66 3185.17 1443.71ZM3104.17 1434.61C3104.17 1417.86 3121.86 1412.83 3138.17 1412.83C3147.23 1412.83 3158.64 1414.51 3166.56 1416.18V1437.25C3156.77 1448.03 3142.57 1454.01 3128.38 1454.01C3116.05 1454.01 3104.17 1448.03 3104.17 1434.61ZM3271.25 1467.66L3301.74 1427.44H3333.16V1467.66H3351.78V1352.73H3296.85C3269.62 1352.73 3254.96 1369.98 3254.96 1390.08C3254.96 1406.12 3264.27 1420.25 3281.72 1425.52L3249.37 1467.66H3271.25ZM3273.57 1390.08C3273.57 1377.4 3282.88 1369.98 3298.48 1369.98H3333.16V1410.19H3298.48C3282.88 1410.19 3273.57 1402.77 3273.57 1390.08ZM3511.83 1410.68C3511.83 1451.62 3542.31 1470.53 3571.64 1470.53C3585.62 1470.53 3597.48 1467.89 3607.96 1462.63V1443.47C3598.65 1449.21 3586.31 1452.81 3574.21 1452.81C3552.33 1452.81 3530.46 1439.64 3530.46 1410.19C3530.46 1380.03 3553.03 1367.58 3574.67 1367.58C3586.55 1367.58 3598.41 1371.17 3606.8 1377.87V1359.19C3597.25 1352.73 3584.91 1349.86 3572.35 1349.86C3543.24 1349.86 3511.83 1368.78 3511.83 1410.68ZM3663.08 1410.19C3663.08 1451.14 3691.94 1470.53 3724.99 1470.53C3739.66 1470.53 3754.32 1467.66 3764.56 1462.15V1443.47C3755.02 1448.98 3741.52 1452.81 3727.78 1452.81C3705.21 1452.81 3684.03 1442.75 3681.7 1418.57H3770.61C3777.59 1386.01 3761.76 1349.86 3718.71 1349.86C3692.17 1349.86 3663.08 1369.98 3663.08 1410.19ZM3754.08 1401.82H3681.7C3683.1 1379.31 3700.78 1367.58 3719.86 1367.58C3748.27 1367.58 3755.71 1389.6 3754.08 1401.82ZM3879.73 1467.66V1370.45H3920.7V1352.73H3819.92V1370.45H3861.1V1467.66H3879.73ZM4032.6 1467.66C4059.83 1467.66 4075.9 1451.62 4075.9 1430.3C4075.9 1409 4059.83 1392.96 4032.6 1392.96H3998.16V1352.73H3979.55V1467.66H4032.6ZM3998.16 1410.19H4030.28C4046.57 1410.19 4057.04 1416.66 4057.04 1430.3C4057.04 1443.96 4046.57 1450.42 4030.28 1450.42H3998.16V1410.19ZM4251.77 1467.66V1419.06H4316.47V1467.66H4335.1V1352.73H4316.47V1401.34H4251.77V1352.73H4233.15V1467.66H4251.77ZM4497.98 1443.71V1398.7C4497.98 1366.62 4479.13 1349.86 4449.33 1349.86C4430.94 1349.86 4415.59 1354.41 4406.75 1357.52V1376.19C4416.52 1371.88 4430.26 1367.58 4447.48 1367.58C4467.96 1367.58 4479.37 1379.07 4479.37 1396.31V1400.38C4470.06 1398.23 4458.19 1396.78 4448.41 1396.78C4424.43 1396.78 4397.91 1405.89 4397.91 1435.58C4397.91 1459.76 4417.45 1470.53 4437.24 1470.53C4455.39 1470.53 4469.59 1464.79 4480.76 1455.21C4484.02 1465.26 4492.16 1469.09 4501.24 1469.09C4505.9 1469.09 4510.78 1468.13 4515.2 1466.46V1450.9C4512.41 1451.86 4509.38 1452.58 4506.59 1452.58C4501.71 1452.58 4497.98 1450.66 4497.98 1443.71ZM4416.99 1434.61C4416.99 1417.86 4434.67 1412.83 4450.97 1412.83C4460.05 1412.83 4471.45 1414.51 4479.37 1416.18V1437.25C4469.59 1448.03 4455.39 1454.01 4441.19 1454.01C4428.86 1454.01 4416.99 1448.03 4416.99 1434.61ZM4614.08 1445.87L4571.97 1352.73H4552.17L4605.24 1467.89L4601.05 1478.43C4593.83 1497.11 4584.75 1506.44 4572.18 1506.44C4568.93 1506.44 4565.67 1505.97 4562.41 1505.01V1521.53C4566.6 1522.73 4570.56 1523.2 4574.51 1523.2C4590.8 1523.2 4605 1512.67 4616.64 1484.9L4671.57 1352.73H4651.78L4614.08 1445.87ZM4748.58 1467.66V1418.33H4770.44L4811.41 1467.66H4833.29L4785.81 1409.96L4828.17 1352.73H4806.53L4771.15 1400.62H4748.58V1352.73H4729.96V1467.66H4748.58ZM4876.07 1410.19C4876.07 1449.46 4905.4 1470.53 4935.67 1470.53C4966.15 1470.53 4995.24 1449.46 4995.24 1410.19C4995.24 1370.93 4966.15 1349.86 4935.67 1349.86C4905.4 1349.86 4876.07 1370.93 4876.07 1410.19ZM4976.63 1410.19C4976.63 1436.77 4958.46 1452.34 4935.67 1452.34C4912.86 1452.34 4894.69 1436.77 4894.69 1410.19C4894.69 1383.62 4912.86 1368.06 4935.67 1368.06C4958.46 1368.06 4976.63 1383.62 4976.63 1410.19ZM5078.3 1467.66V1370.45H5141.37V1352.73H5059.68V1467.66H5078.3ZM5216.97 1371.88V1352.73H5200.22V1520.33H5218.83V1450.42C5226.98 1460.23 5240.71 1470.53 5262.13 1470.53C5294.01 1470.53 5317.99 1444.67 5317.99 1410.19C5317.99 1375.72 5294.01 1349.86 5262.13 1349.86C5240.71 1349.86 5226.98 1360.15 5216.97 1371.88ZM5299.36 1410.19C5299.36 1436.53 5281.68 1452.81 5260.03 1452.81C5240.02 1452.81 5225.13 1439.4 5218.83 1424.56V1395.82C5225.13 1380.98 5240.02 1367.58 5260.03 1367.58C5281.68 1367.58 5299.36 1383.86 5299.36 1410.19ZM5473.19 1443.71V1398.7C5473.19 1366.62 5454.33 1349.86 5424.54 1349.86C5406.16 1349.86 5390.79 1354.41 5381.94 1357.52V1376.19C5391.72 1371.88 5405.46 1367.58 5422.69 1367.58C5443.16 1367.58 5454.57 1379.07 5454.57 1396.31V1400.38C5445.26 1398.23 5433.38 1396.78 5423.6 1396.78C5399.64 1396.78 5373.1 1405.89 5373.1 1435.58C5373.1 1459.76 5392.66 1470.53 5412.44 1470.53C5430.59 1470.53 5444.79 1464.79 5455.96 1455.21C5459.22 1465.26 5467.36 1469.09 5476.44 1469.09C5481.1 1469.09 5485.99 1468.13 5490.41 1466.46V1450.9C5487.61 1451.86 5484.59 1452.58 5481.79 1452.58C5476.91 1452.58 5473.19 1450.66 5473.19 1443.71ZM5392.19 1434.61C5392.19 1417.86 5409.87 1412.83 5426.17 1412.83C5435.25 1412.83 5446.65 1414.51 5454.57 1416.18V1437.25C5444.79 1448.03 5430.59 1454.01 5416.39 1454.01C5404.06 1454.01 5392.19 1448.03 5392.19 1434.61ZM5555.08 1498.78V1467.66H5652.37V1498.78H5670.52V1450.42H5654.22V1352.73H5570.9C5571.37 1395.59 5565.78 1425.04 5551.82 1450.42H5536.92V1498.78H5555.08ZM5588.83 1369.98H5635.6V1450.42H5572.07C5582.31 1428.39 5587.9 1404.45 5588.83 1369.98ZM5823.86 1443.71V1398.7C5823.86 1366.62 5805 1349.86 5775.22 1349.86C5756.82 1349.86 5741.46 1354.41 5732.63 1357.52V1376.19C5742.4 1371.88 5756.13 1367.58 5773.36 1367.58C5793.84 1367.58 5805.24 1379.07 5805.24 1396.31V1400.38C5795.93 1398.23 5784.06 1396.78 5774.28 1396.78C5750.31 1396.78 5723.78 1405.89 5723.78 1435.58C5723.78 1459.76 5743.33 1470.53 5763.11 1470.53C5781.27 1470.53 5795.47 1464.79 5806.63 1455.21C5809.9 1465.26 5818.03 1469.09 5827.11 1469.09C5831.78 1469.09 5836.66 1468.13 5841.08 1466.46V1450.9C5838.29 1451.86 5835.26 1452.58 5832.46 1452.58C5827.58 1452.58 5823.86 1450.66 5823.86 1443.71ZM5742.86 1434.61C5742.86 1417.86 5760.55 1412.83 5776.84 1412.83C5785.92 1412.83 5797.33 1414.51 5805.24 1416.18V1437.25C5795.47 1448.03 5781.27 1454.01 5767.07 1454.01C5754.74 1454.01 5742.86 1448.03 5742.86 1434.61Z" fill="#5B5B5B"/>
</svg>
